<?xml version="1.0" encoding="UTF-8" standalone="no"?>
<!-- Created with Inkscape (http://www.inkscape.org/) -->

<svg
   width="210mm"
   height="297mm"
   viewBox="0 0 210 297"
   version="1.1"
   id="svg5"
   inkscape:version="1.2.2 (b0a8486541, 2022-12-01)"
   sodipodi:docname="drawing.svg"
   inkscape:export-filename="../2025/2025-challenges/rev-asteroids-redux/challenge/spritesheet.png"
   inkscape:export-xdpi="95.976486"
   inkscape:export-ydpi="95.976486"
   xmlns:inkscape="http://www.inkscape.org/namespaces/inkscape"
   xmlns:sodipodi="http://sodipodi.sourceforge.net/DTD/sodipodi-0.dtd"
   xmlns="http://www.w3.org/2000/svg"
   xmlns:svg="http://www.w3.org/2000/svg">
  <sodipodi:namedview
     id="namedview7"
     pagecolor="#505050"
     bordercolor="#ffffff"
     borderopacity="1"
     inkscape:showpageshadow="0"
     inkscape:pageopacity="0"
     inkscape:pagecheckerboard="1"
     inkscape:deskcolor="#505050"
     inkscape:document-units="mm"
     showgrid="true"
     inkscape:zoom="0.914906"
     inkscape:cx="365.61133"
     inkscape:cy="498.41186"
     inkscape:window-width="2560"
     inkscape:window-height="1403"
     inkscape:window-x="2560"
     inkscape:window-y="0"
     inkscape:window-maximized="1"
     inkscape:current-layer="layer1"
     showguides="true">
    <inkscape:grid
       type="xygrid"
       id="grid8026"
       spacingx="1.3229167"
       spacingy="1.3229167" />
  </sodipodi:namedview>
  <defs
     id="defs2" />
  <g
     inkscape:label="Layer 1"
     inkscape:groupmode="layer"
     id="layer1">
    <path
       sodipodi:type="star"
       style="fill:#000000;fill-opacity:0;stroke:#ffffff;stroke-width:1.57129;stroke-dasharray:none;stroke-opacity:1"
       id="path463"
       inkscape:flatsided="true"
       sodipodi:sides="6"
       sodipodi:cx="51.750652"
       sodipodi:cy="45.871407"
       sodipodi:r1="42.351383"
       sodipodi:r2="36.677376"
       sodipodi:arg1="0.53672173"
       sodipodi:arg2="1.0603205"
       inkscape:rounded="0.03"
       inkscape:randomized="0.3"
       d="M 82.475377,68.32546 C 81.455053,69.051743 49.668993,79.740587 48.243071,79.942325 46.81715,80.144062 20.565403,80.064702 19.78716,78.925546 19.008916,77.78639 6.9398058,37.428439 8.0368634,36.469068 9.133921,35.509696 61.236418,11.044653 62.518832,11.387 63.801247,11.729347 95.228246,28.047865 96.136319,28.682591 97.044392,29.317317 83.4957,67.599178 82.475377,68.32546 Z"
       inkscape:transform-center-x="-1.8809428"
       inkscape:transform-center-y="2.1385179"
       transform="matrix(0.55989976,0,0,0.71577385,-2.697276,-6.257316)" />
    <path
       sodipodi:type="star"
       style="fill:#000000;fill-opacity:0;stroke:#ffffff;stroke-width:1.13301;stroke-dasharray:none;stroke-opacity:1"
       id="path6166"
       inkscape:flatsided="true"
       sodipodi:sides="8"
       sodipodi:cx="158.81482"
       sodipodi:cy="45.248829"
       sodipodi:r1="31.292088"
       sodipodi:r2="28.910116"
       sodipodi:arg1="0.47005982"
       sodipodi:arg2="0.8627589"
       inkscape:rounded="0.03"
       inkscape:randomized="0.3"
       d="m 183.74728,58.033252 c -0.43813,0.525794 -15.01566,14.319935 -15.77129,14.654087 -0.75563,0.334151 -30.41395,0.903982 -31.17155,0.817848 -0.75759,-0.08613 -1.37191,-11.952445 -1.44952,-12.634707 -0.0776,-0.682261 -8.46337,-30.776033 -8.0613,-31.399408 0.40206,-0.623375 16.22819,-8.049863 16.80217,-8.523934 0.57398,-0.474071 29.1629,4.504256 29.83149,4.651126 0.66858,0.14687 12.45377,10.433547 12.78441,11.161301 0.33064,0.727754 -2.52628,20.747893 -2.96441,21.273687 z"
       inkscape:transform-center-x="6.8541291"
       inkscape:transform-center-y="-6.3149153"
       transform="matrix(0.82966232,0,0,0.93546638,-50.88932,-17.712525)" />
    <path
       sodipodi:type="star"
       style="fill:#000000;fill-opacity:0;stroke:#ffffff;stroke-width:1.33895;stroke-dasharray:none;stroke-opacity:1"
       id="path7694"
       inkscape:flatsided="true"
       sodipodi:sides="8"
       sodipodi:cx="82.169449"
       sodipodi:cy="95.567802"
       sodipodi:r1="31.229704"
       sodipodi:r2="27.045715"
       sodipodi:arg1="-0.12057275"
       sodipodi:arg2="0.27212633"
       inkscape:rounded="0.03"
       inkscape:randomized="0.3"
       d="m 115.87034,86.835707 c 0.10384,0.718042 -11.68334,31.913743 -12.35608,32.239883 -0.67275,0.32613 -21.715257,-1.91262 -22.272454,-1.59183 -0.557196,0.32078 -10.527667,9.0048 -10.960789,8.40156 C 69.847895,125.28209 44.516445,96.483235 44.747943,95.821083 44.97944,95.158931 59.496628,71.704608 59.900606,71.085918 c 0.403978,-0.61869 23.685203,-1.665216 24.273454,-1.467346 0.58825,0.19787 8.415356,-5.849336 8.959788,-5.342392 0.544433,0.506944 22.632652,21.841484 22.736492,22.559527 z"
       inkscape:transform-center-x="2.6391395"
       inkscape:transform-center-y="-0.49001468"
       transform="matrix(0.69355942,0,0,0.79764675,76.596841,-49.382127)" />
    <path
       sodipodi:type="star"
       style="fill:#000000;fill-opacity:0;stroke:#ffffff;stroke-width:1.04257;stroke-dasharray:none;stroke-opacity:1"
       id="path7703"
       inkscape:flatsided="true"
       sodipodi:sides="9"
       sodipodi:cx="29.430138"
       sodipodi:cy="90.283218"
       sodipodi:r1="15.121307"
       sodipodi:r2="12.233394"
       sodipodi:arg1="0.32162763"
       sodipodi:arg2="0.67069348"
       inkscape:rounded="0.03"
       inkscape:randomized="0.3"
       d="m 39.338091,93.216031 c -0.0086,0.300846 -3.338984,8.554459 -3.516487,8.786389 -0.177503,0.23193 -11.802059,7.10459 -12.065274,7.15101 -0.263215,0.0464 -7.344163,-11.603497 -7.442622,-11.907255 -0.09846,-0.303759 -2.045056,-5.746342 -2.000098,-6.022122 0.04496,-0.27578 4.262363,-13.922126 4.467384,-14.148684 0.205021,-0.226558 3.246637,2.187685 3.514977,2.105426 0.268341,-0.08226 10.765993,-3.841834 11.003144,-3.697058 0.237151,0.144776 11.366945,9.195404 11.533157,9.434183 0.166212,0.238779 -5.485602,7.997266 -5.494181,8.298111 z"
       inkscape:transform-center-x="-0.00096312596"
       inkscape:transform-center-y="-0.68880387"
       transform="matrix(1.0048704,0,0,0.91439437,-12.527677,-14.301896)" />
    <path
       sodipodi:type="star"
       style="fill:#000000;fill-opacity:0;stroke:#ffffff;stroke-width:1.00244;stroke-dasharray:none;stroke-opacity:1"
       id="path7705"
       inkscape:flatsided="true"
       sodipodi:sides="7"
       sodipodi:cx="70.053299"
       sodipodi:cy="97.465813"
       sodipodi:r1="14.755572"
       sodipodi:r2="12.7787"
       sodipodi:arg1="0.29736326"
       sodipodi:arg2="0.74616221"
       inkscape:rounded="0.03"
       inkscape:randomized="0.3"
       d="m 82.754592,99.583062 c -0.09429,0.421698 -8.557195,12.707808 -8.96545,12.713118 -0.408254,0.005 -12.650379,0.86669 -13.015395,0.73619 -0.365016,-0.13051 -7.077668,-16.374531 -7.237478,-16.661405 -0.15981,-0.286875 3.852945,-10.678885 4.194708,-10.843382 0.341762,-0.164498 15.707275,-1.287062 16.072639,-1.259264 0.365364,0.0278 12.623282,6.359311 12.699614,6.782712 0.07633,0.423401 -3.654351,8.110336 -3.748638,8.532031 z"
       inkscape:transform-center-x="2.3316376"
       inkscape:transform-center-y="0.05039728"
       transform="matrix(0.93376197,0,0,1.065725,-13.78234,-35.029457)" />
    <path
       sodipodi:type="star"
       style="fill:#000000;fill-opacity:0;stroke:#ffffff;stroke-width:2.17305;stroke-dasharray:none;stroke-opacity:1"
       id="path7707"
       inkscape:flatsided="true"
       sodipodi:sides="11"
       sodipodi:cx="121.76599"
       sodipodi:cy="94.059387"
       sodipodi:r1="29.345007"
       sodipodi:r2="16.49003"
       sodipodi:arg1="-0.20489742"
       sodipodi:arg2="0.080701914"
       inkscape:rounded="0.03"
       inkscape:randomized="0.3"
       d="m 153.4826,93.857271 c 0.006,0.519911 3.68122,5.477735 3.69925,5.969833 0.018,0.492096 -13.05862,11.512076 -13.34693,11.852736 -0.28831,0.34067 -23.17213,19.10335 -23.64988,19.23317 -0.47775,0.12982 -4.74929,-16.02115 -5.22091,-16.07083 -0.47163,-0.0497 -26.790879,-12.11549 -26.94079,-12.56045 -0.149911,-0.44496 -3.514151,-8.722166 -3.32392,-9.116224 0.190231,-0.394057 13.17952,-10.621037 13.324612,-11.146834 0.145091,-0.525797 10.039518,-11.628714 10.468498,-11.81195 0.42897,-0.183235 28.09533,2.881863 28.5146,2.788895 0.41927,-0.09297 11.83913,3.248124 12.22573,3.616869 0.3866,0.368746 4.2442,16.724873 4.24974,17.244785 z"
       inkscape:transform-center-x="-1.0136935"
       inkscape:transform-center-y="1.3962198"
       transform="matrix(0.41811866,0,0,0.49631204,35.424552,20.203143)" />
    <path
       sodipodi:type="star"
       style="fill:#000000;fill-opacity:0;stroke:#ffffff;stroke-width:1.19865;stroke-dasharray:none;stroke-opacity:1"
       id="path7709"
       inkscape:flatsided="true"
       sodipodi:sides="10"
       sodipodi:cx="79.973648"
       sodipodi:cy="136.77065"
       sodipodi:r1="18.433622"
       sodipodi:r2="15.963986"
       sodipodi:arg1="0.26419836"
       sodipodi:arg2="0.57835763"
       inkscape:rounded="0.03"
       inkscape:randomized="0.3"
       d="m 93.083094,137.38803 c -0.05448,0.38614 3.717541,12.98837 3.431309,13.20038 -0.286233,0.21202 -19.662786,5.11415 -19.938935,5.23845 -0.276148,0.1243 -6.130089,-4.61959 -6.473276,-4.74878 -0.343186,-0.12919 -10.44833,-12.57303 -10.727031,-12.84525 -0.2787,-0.27221 6.810568,-9.91493 6.842789,-10.24781 0.03222,-0.33288 7.320118,-1.08424 7.640248,-1.18474 0.320131,-0.10049 8.497971,-5.15942 8.878761,-5.23844 0.38079,-0.079 6.16883,4.9654 6.462071,5.01794 0.293241,0.0525 10.150931,6.16322 10.130607,6.51565 -0.02032,0.35242 -6.192062,3.90647 -6.246543,4.2926 z"
       inkscape:transform-center-x="-1.8472964"
       inkscape:transform-center-y="-0.040528678"
       transform="matrix(0.77132291,0,0,0.89452549,59.181862,-53.95986)" />
    <path
       sodipodi:type="star"
       style="fill:#000000;fill-opacity:0;stroke:#ffffff;stroke-width:1.0528;stroke-dasharray:none;stroke-opacity:1"
       id="path7736"
       inkscape:flatsided="true"
       sodipodi:sides="8"
       sodipodi:cx="23.189499"
       sodipodi:cy="115.96386"
       sodipodi:r1="7.7417922"
       sodipodi:r2="8.1230621"
       sodipodi:arg1="-0.36618053"
       sodipodi:arg2="0.026518552"
       inkscape:rounded="0.03"
       inkscape:randomized="0.3"
       d="m 28.359666,114.30297 c 0.001,0.18704 3.333201,3.5599 3.199903,3.69592 -0.133298,0.13601 -4.736087,7.25316 -4.888266,7.26889 -0.15218,0.0157 -8.824507,-3.38109 -8.957914,-3.4896 -0.133407,-0.1085 -2.428618,-2.98481 -2.517903,-3.13312 -0.08929,-0.1483 0.385289,-4.03291 0.421191,-4.19397 0.0359,-0.16105 4.793287,-5.31537 4.968526,-5.40605 0.175238,-0.0907 3.914099,-1.43821 4.084076,-1.38424 0.169977,0.054 3.689378,6.45513 3.690387,6.64217 z"
       inkscape:transform-center-x="-0.41147536"
       inkscape:transform-center-y="0.16591993"
       transform="matrix(0.91054085,0,0,0.84970491,-12.023136,-2.3924876)" />
    <path
       sodipodi:type="star"
       style="fill:#000000;fill-opacity:0;stroke:#ffffff;stroke-width:0.657774;stroke-dasharray:none;stroke-opacity:1"
       id="path7736-3"
       inkscape:flatsided="true"
       sodipodi:sides="8"
       sodipodi:cx="23.189499"
       sodipodi:cy="115.96386"
       sodipodi:r1="5.6996331"
       sodipodi:r2="8.1230621"
       sodipodi:arg1="-0.187241"
       sodipodi:arg2="0.20545809"
       inkscape:rounded="0.03"
       inkscape:randomized="0.3"
       d="m 27.608124,115.41732 c -0.0091,0.12224 -0.213644,1.41426 -0.289161,1.49869 -0.07552,0.0844 -3.062368,5.06138 -3.195354,5.03607 -0.132986,-0.0253 -6.372879,-3.30054 -6.479273,-3.36042 -0.106394,-0.0599 1.919376,-1.97599 1.923708,-2.09865 0.0043,-0.12266 0.202669,-5.71233 0.289239,-5.83288 0.08657,-0.12054 1.24111,1.39675 1.344179,1.31813 0.10307,-0.0786 3.445771,-1.23167 3.53687,-1.13094 0.0911,0.10073 2.878866,4.44775 2.869792,4.57 z"
       inkscape:transform-center-x="-0.6751656"
       inkscape:transform-center-y="0.259036"
       transform="matrix(1.4940567,0,0,1.3266031,-6.0199084,-57.721201)" />
    <path
       sodipodi:type="star"
       style="fill:#000000;fill-opacity:0;stroke:#ffffff;stroke-width:1.38529;stroke-dasharray:none;stroke-opacity:1"
       id="path7736-6"
       inkscape:flatsided="true"
       sodipodi:sides="10"
       sodipodi:cx="23.189499"
       sodipodi:cy="115.96386"
       sodipodi:r1="11.17146"
       sodipodi:r2="8.1230621"
       sodipodi:arg1="-0.20894116"
       sodipodi:arg2="0.10521811"
       inkscape:rounded="0.03"
       inkscape:randomized="0.3"
       d="m 32.76883,111.77399 c 0.119967,0.1921 2.604405,5.59263 2.48243,5.79618 -0.121975,0.20354 -8.792554,9.64158 -8.91814,9.83209 -0.125586,0.19052 -3.258371,-3.31525 -3.423337,-3.38846 -0.164966,-0.0732 -7.520978,1.2048 -7.658311,1.07848 -0.137333,-0.12633 -0.474909,-4.74979 -0.544975,-4.96247 -0.07007,-0.21269 -2.104364,-6.67106 -2.010704,-6.84334 0.09366,-0.17228 1.735075,-5.34575 1.854024,-5.48084 0.11895,-0.1351 10.296691,-0.96124 10.487453,-0.96279 0.190762,-0.002 8.47981,0.007 8.658485,0.12175 0.178676,0.11444 -1.046891,4.6173 -0.926925,4.8094 z"
       inkscape:transform-center-x="-0.28918697"
       inkscape:transform-center-y="0.13635672"
       transform="matrix(0.63993941,0,0,0.6983114,68.005654,14.774443)" />
    <path
       sodipodi:type="star"
       style="fill:#000000;fill-opacity:0;stroke:#ffffff;stroke-width:1.18982;stroke-dasharray:none;stroke-opacity:1"
       id="path7736-3-7"
       inkscape:flatsided="true"
       sodipodi:sides="11"
       sodipodi:cx="23.189499"
       sodipodi:cy="115.96386"
       sodipodi:r1="8.4478569"
       sodipodi:r2="8.1230621"
       sodipodi:arg1="-0.45930417"
       sodipodi:arg2="-0.17370484"
       inkscape:rounded="0.03"
       inkscape:randomized="0.3"
       d="m 30.954441,110.32424 c 0.07664,0.11746 2.886479,7.18617 2.855973,7.31085 -0.03051,0.12467 -4.700651,1.39311 -4.770084,1.50462 -0.06943,0.11152 -4.624013,5.57584 -4.784067,5.59662 -0.160053,0.0208 -1.713585,-2.15481 -1.837869,-2.24742 -0.124284,-0.0926 -4.771746,1.75165 -4.848424,1.65573 -0.07668,-0.0959 -3.413754,-8.05133 -3.476912,-8.17349 -0.06316,-0.12217 1.031359,-2.05228 1.049733,-2.18776 0.01837,-0.13549 5.105416,-3.64529 5.18205,-3.76888 0.07663,-0.12359 4.034821,-3.88094 4.150064,-3.93618 0.115243,-0.0552 3.929542,2.33324 4.000289,2.44583 0.07075,0.11259 2.402603,1.68262 2.479247,1.80008 z"
       inkscape:transform-center-x="-0.34270036"
       inkscape:transform-center-y="0.15597608"
       transform="matrix(0.75835139,0,0,0.79878472,83.710078,4.377256)" />
    <path
       sodipodi:type="star"
       style="fill:#000000;fill-opacity:0;stroke:#ffffff;stroke-width:1.61869;stroke-dasharray:none;stroke-opacity:1"
       id="path7736-5"
       inkscape:flatsided="true"
       sodipodi:sides="8"
       sodipodi:cx="23.189499"
       sodipodi:cy="115.96386"
       sodipodi:r1="12.243784"
       sodipodi:r2="8.1230621"
       sodipodi:arg1="-0.31827127"
       sodipodi:arg2="0.074427812"
       inkscape:rounded="0.03"
       inkscape:randomized="0.3"
       d="m 31.346315,112.21789 c 0.06305,0.23103 3.068309,9.25397 2.942018,9.50245 -0.126291,0.24847 -9.623031,7.97939 -9.804344,8.14401 -0.181313,0.16463 -5.88145,-4.8705 -6.167241,-4.91871 -0.28579,-0.0482 -8.9875224,-1.6025 -9.03274,-1.87126 -0.045217,-0.26875 4.128946,-9.84527 4.129194,-10.08538 2.48e-4,-0.24012 2.201913,-8.04691 2.458073,-8.14402 0.25616,-0.0971 14.007326,-2.29055 14.305694,-2.17888 0.298368,0.11167 1.1063,9.32075 1.169346,9.55179 z"
       inkscape:transform-center-x="-0.26901269"
       inkscape:transform-center-y="0.10735731"
       transform="matrix(0.59528994,0,0,0.5497996,33.328216,32.64846)" />
    <path
       sodipodi:type="star"
       style="fill:#000000;fill-opacity:0;stroke:#ffffff;stroke-width:1.24311;stroke-dasharray:none;stroke-opacity:1"
       id="path7736-3-3"
       inkscape:flatsided="true"
       sodipodi:sides="10"
       sodipodi:cx="23.189499"
       sodipodi:cy="115.96386"
       sodipodi:r1="9.6139364"
       sodipodi:r2="8.1230621"
       sodipodi:arg1="0.45775939"
       sodipodi:arg2="0.77191866"
       inkscape:rounded="0.03"
       inkscape:randomized="0.3"
       d="m 32.499879,119.99399 c -0.07321,0.14922 -3.739628,2.19073 -3.932998,2.21952 -0.19337,0.0288 -8.773469,1.95035 -8.929567,1.87106 -0.156097,-0.0793 -4.991734,1.35295 -5.098529,1.20907 -0.106794,-0.14389 0.839175,-10.37969 0.873362,-10.53581 0.03419,-0.15612 -1.620871,-2.97938 -1.608782,-3.16563 0.01209,-0.18626 4.925199,-4.72679 5.047313,-4.8235 0.122114,-0.0967 6.480233,-2.97158 6.643553,-2.96244 0.163319,0.009 1.522268,4.83165 1.616088,5.01197 0.09382,0.18032 4.723452,3.02036 4.800104,3.20141 0.07665,0.18106 0.662668,7.82513 0.589456,7.97435 z"
       inkscape:transform-center-x="-0.35960535"
       inkscape:transform-center-y="0.13617735"
       transform="matrix(0.7957575,0,0,0.69736659,46.398217,16.679018)" />
    <path
       sodipodi:type="star"
       style="fill:#000000;fill-opacity:0;stroke:#ffffff;stroke-width:1.79202;stroke-dasharray:none;stroke-opacity:1"
       id="path7736-6-5"
       inkscape:flatsided="true"
       sodipodi:sides="10"
       sodipodi:cx="23.189499"
       sodipodi:cy="115.96386"
       sodipodi:r1="13.796525"
       sodipodi:r2="8.1230621"
       sodipodi:arg1="-0.10040936"
       sodipodi:arg2="0.21374991"
       inkscape:rounded="0.03"
       inkscape:randomized="0.3"
       d="m 34.388908,115.23587 c 0.0104,0.28434 -1.960751,5.14857 -2.048241,5.40627 -0.08749,0.25769 -6.020105,5.23241 -6.311631,5.26398 -0.291526,0.0316 -6.638159,5.41714 -6.877239,5.43352 -0.23908,0.0164 -4.65352,-2.28398 -4.805173,-2.52635 -0.151653,-0.24237 -1.000633,-11.00745 -1.002457,-11.23442 -0.0018,-0.22696 -6.1661049,-11.16983 -6.0934915,-11.43683 0.072613,-0.267 14.1975875,-0.0881 14.4532305,-0.14999 0.255643,-0.0618 6.637538,-5.44246 6.877239,-5.43351 0.239702,0.009 4.834549,5.45005 4.941488,5.69026 0.10694,0.24021 0.855872,8.70274 0.866275,8.98707 z"
       inkscape:transform-center-x="-0.24789333"
       inkscape:transform-center-y="0.095055235"
       transform="matrix(0.54856726,0,0,0.4867954,127.48794,40.121665)" />
    <path
       sodipodi:type="star"
       style="fill:#000000;fill-opacity:0;stroke:#ffffff;stroke-width:1.27756;stroke-dasharray:none;stroke-opacity:1"
       id="path7736-3-7-6"
       inkscape:flatsided="true"
       sodipodi:sides="10"
       sodipodi:cx="23.189499"
       sodipodi:cy="115.96386"
       sodipodi:r1="9.3408327"
       sodipodi:r2="8.1230621"
       sodipodi:arg1="-0.58894593"
       sodipodi:arg2="-0.27478666"
       inkscape:rounded="0.03"
       inkscape:randomized="0.3"
       d="m 31.691274,112.95355 c 0.110482,0.16185 -1.825262,3.9038 -1.837711,4.06227 -0.01245,0.15848 0.443468,2.16092 0.33724,2.30488 -0.106228,0.14397 -4.071368,7.57798 -4.243494,7.55758 -0.172125,-0.0204 -5.134469,-1.27608 -5.301513,-1.35199 -0.167045,-0.0759 -3.355661,-3.76193 -3.508555,-3.8573 -0.152893,-0.0954 -5.328749,-5.97149 -5.299538,-6.15654 0.02921,-0.18505 6.656498,-5.22911 6.805777,-5.33095 0.149279,-0.10184 2.651147,-2.30657 2.797268,-2.3894 0.14612,-0.0828 5.444855,-2.36877 5.603558,-2.28623 0.158702,0.0825 4.536485,7.28582 4.646968,7.44768 z"
       inkscape:transform-center-x="-0.33901087"
       inkscape:transform-center-y="0.13676299"
       transform="matrix(0.75017355,0,0,0.70038544,104.04646,15.204343)" />
    <path
       style="fill:#000000;fill-opacity:0;stroke:#ffffff;stroke-width:0.79375;stroke-dasharray:none;stroke-opacity:1"
       d="m 1.5957604,107.52741 13.1585386,4.92247 -13.1585386,4.92247 2.6317076,-2.46123 v -4.92247 z"
       id="path10208" />
    <rect
       style="fill:#000000;fill-opacity:0;stroke:#ffffff;stroke-width:0.79375"
       id="rect659"
       width="6.614583"
       height="6.614583"
       x="165.36458"
       y="125.67708" />
  </g>
</svg>
